<?xml version="1.0" standalone="no"?>
<!DOCTYPE svg PUBLIC "-//W3C//DTD SVG 20010904//EN"
 "http://www.w3.org/TR/2001/REC-SVG-20010904/DTD/svg10.dtd">
<svg version="1.0" xmlns="http://www.w3.org/2000/svg"
 width="300.000000pt" height="45.000000pt" viewBox="0 0 1024.000000 1024.000000"
 preserveAspectRatio="xMidYMid meet">
<metadata>
Created by potrace 1.16, written by Peter Selinger 2001-2019
</metadata>
<g transform="translate(0.000000,1024.000000) scale(0.100000,-0.100000)"
fill="#ffffff" stroke="none">
<path d="M4505 9455 c-22 -8 -41 -15 -41 -15 -1 0 -9 -15 -18 -34 -14 -30 -16
-112 -16 -754 l0 -720 118 48 c211 85 439 145 669 175 70 10 138 19 151 21
l23 5 -3 604 c-3 595 -3 604 -24 632 -35 47 -75 51 -464 52 -285 0 -363 -3
-395 -14z"/>
<path d="M5495 8149 c-595 -34 -1125 -222 -1457 -516 -300 -265 -483 -637
-543 -1098 -27 -210 -31 -559 -27 -2289 l4 -1638 34 5 c60 10 200 73 288 131
99 64 245 201 317 296 96 128 178 314 213 485 36 181 38 248 46 1715 7 1541 6
1516 56 1689 124 433 529 798 994 898 129 28 409 25 552 -5 280 -58 481 -164
669 -352 243 -243 390 -558 414 -890 4 -47 10 -292 14 -545 6 -294 12 -470 19
-487 7 -16 26 -37 44 -49 32 -20 44 -20 398 -17 261 3 371 7 387 16 43 24 46
61 40 451 -6 388 -13 482 -53 681 -115 576 -456 1010 -1014 1290 -193 97 -421
160 -720 200 -145 19 -448 42 -515 38 -16 0 -88 -4 -160 -9z"/>
<path d="M5278 7750 c-421 -143 -739 -487 -840 -910 -19 -80 -21 -130 -28
-930 -4 -465 -8 -1126 -9 -1470 -1 -344 -6 -665 -11 -715 -43 -381 -159 -636
-394 -863 -101 -98 -175 -151 -284 -206 -240 -121 -506 -147 -772 -77 -436
114 -700 359 -840 780 -73 217 -106 429 -144 924 -26 335 -29 347 -89 372 -44
17 -704 30 -773 15 -109 -25 -130 -82 -121 -335 11 -302 60 -551 159 -798 187
-468 552 -851 1043 -1092 327 -161 602 -224 980 -225 480 0 877 106 1245 334
258 159 558 454 726 711 139 215 202 404 240 725 16 131 18 316 21 1968 3
1490 2 1822 -9 1822 -7 0 -52 -14 -100 -30z m-488 -665 c0 -9 -11 -20 -24 -25
-28 -10 -56 -47 -56 -72 0 -9 11 -30 24 -45 l24 -28 167 -3 c132 -3 170 -1
176 10 6 8 8 -1 8 -27 0 -22 -3 -34 -6 -27 -3 9 -44 12 -154 12 -169 0 -208
10 -233 59 -31 58 -17 108 37 141 38 24 37 24 37 5z m115 -445 c145 0 195 3
198 13 3 6 6 2 6 -9 1 -18 -17 -29 -109 -69 -61 -26 -108 -50 -105 -54 4 -3
52 -24 108 -46 76 -31 103 -46 105 -61 3 -18 -5 -19 -203 -19 l-205 0 0 35 c0
22 3 30 8 22 7 -9 48 -12 173 -10 l164 3 -85 34 c-138 55 -135 48 -29 93 52
22 96 42 99 45 2 2 -71 3 -163 1 l-167 -3 1 25 c0 14 3 19 6 13 3 -10 53 -13
198 -13z m0 -340 c176 0 194 2 198 18 3 11 5 8 6 -9 1 -23 -8 -29 -105 -69
-58 -25 -107 -47 -109 -51 -3 -3 45 -25 105 -49 101 -40 110 -45 109 -69 0
-14 -3 -20 -6 -13 -3 9 -53 12 -198 12 -145 0 -195 -3 -198 -12 -3 -7 -5 5 -5
27 0 22 2 34 5 28 3 -10 47 -13 169 -13 92 0 163 4 160 9 -3 5 -51 26 -106 47
l-100 38 92 39 c51 21 97 43 103 48 5 5 -56 9 -152 9 -120 0 -163 -3 -166 -12
-3 -7 -5 3 -5 22 0 19 2 27 5 18 4 -16 22 -18 198 -18z m204 -337 c0 -21 -3
-32 -6 -26 -3 9 -33 -2 -95 -33 -49 -25 -88 -47 -86 -50 3 -2 43 -20 89 -38
60 -24 86 -31 91 -23 4 7 8 -1 8 -18 0 -17 -4 -25 -8 -18 -4 6 -53 30 -110 52
-93 37 -111 41 -191 41 -77 0 -90 -2 -94 -17 -3 -10 -5 5 -5 32 0 28 2 42 5
33 4 -16 17 -18 94 -18 88 0 91 1 192 51 56 28 104 55 105 60 7 19 12 7 11
-28z m-148 -374 c43 -15 94 -53 116 -85 28 -44 42 -117 32 -165 -8 -32 -7 -44
3 -50 8 -5 -5 -8 -32 -7 -25 0 -35 3 -24 5 41 8 58 100 30 166 -18 44 -77 94
-126 107 -157 42 -294 -106 -232 -251 25 -59 20 -64 -8 -9 -28 54 -26 115 6
178 27 55 64 87 123 108 45 16 69 17 112 3z m-56 -399 c145 0 195 3 198 13 3
6 5 -6 5 -28 0 -22 -2 -34 -5 -27 -3 7 -24 12 -54 12 l-49 0 0 -65 0 -65 49 0
c30 0 51 5 54 13 3 6 5 -6 5 -28 0 -22 -2 -34 -5 -27 -3 9 -53 12 -198 12
-145 0 -195 -3 -198 -12 -3 -7 -5 5 -5 27 0 22 2 34 5 28 3 -10 42 -13 144
-13 l139 0 0 65 0 65 -139 0 c-102 0 -141 -3 -144 -12 -3 -7 -5 5 -5 27 0 22
2 34 5 28 3 -10 53 -13 198 -13z m96 -273 c148 -78 147 -306 -2 -384 -45 -24
-118 -30 -162 -14 -14 5 -42 25 -62 43 -118 103 -92 289 50 362 45 24 124 20
176 -7z m0 -478 c49 -24 89 -78 105 -138 44 -170 -126 -323 -281 -252 -105 47
-155 181 -106 286 55 119 171 161 282 104z"/>
<path d="M4812 4889 c-63 -31 -96 -86 -97 -158 0 -112 75 -191 182 -191 89 0
149 33 184 102 33 65 21 154 -30 212 -50 57 -161 73 -239 35z"/>
<path d="M4808 4410 c-55 -30 -98 -103 -98 -170 0 -42 46 -123 86 -149 84 -57
217 -32 272 52 23 34 27 52 27 108 0 60 -3 71 -31 106 -17 21 -46 46 -65 55
-47 25 -143 23 -191 -2z"/>
<path d="M7121 3365 c-16 -14 -34 -40 -39 -58 -6 -18 -13 -178 -17 -357 -15
-788 -33 -908 -175 -1195 -170 -342 -434 -579 -740 -664 -238 -66 -619 -69
-866 -6 -316 80 -615 337 -784 674 -80 160 -123 344 -136 584 -4 70 -10 127
-14 127 -4 0 -69 -27 -146 -60 -200 -88 -286 -117 -499 -170 l-190 -47 2 -45
c3 -54 43 -195 86 -304 72 -178 191 -349 362 -519 327 -325 729 -496 1375
-587 63 -9 197 -13 400 -12 263 0 325 3 447 22 725 113 1245 454 1527 1002
187 365 246 672 246 1282 0 304 -3 323 -57 347 -16 7 -147 11 -388 11 l-363 0
-31 -25z"/>
</g>
</svg>
