<?xml version="1.0" standalone="no"?>
<!DOCTYPE svg PUBLIC "-//W3C//DTD SVG 20010904//EN"
 "http://www.w3.org/TR/2001/REC-SVG-20010904/DTD/svg10.dtd">
<svg version="1.0" xmlns="http://www.w3.org/2000/svg"
 width="5.000000pt" height="5.000000pt" viewBox="0 0 152.000000 152.000000"
 preserveAspectRatio="xMidYMid meet">

<g transform="translate(0.000000,152.000000) scale(0.100000,-0.100000)"
fill="#ffffff" stroke="none">
<path d="M727 1463 c-4 -3 -7 -58 -7 -121 0 -114 0 -114 23 -108 12 4 46 12
75 18 l52 12 0 103 0 103 -68 0 c-38 0 -72 -3 -75 -7z"/>
<path d="M854 1250 c-145 -21 -228 -80 -271 -191 -14 -38 -16 -84 -15 -368 1
-179 4 -327 7 -329 13 -13 85 51 106 95 23 46 24 60 30 323 l6 275 -1 -275
c-1 -272 -1 -275 -26 -325 -35 -70 -94 -109 -163 -109 -63 0 -126 30 -157 74
-26 36 -50 119 -50 171 0 20 -3 51 -6 68 l-7 32 -71 -3 -71 -3 2 -67 c5 -241
274 -393 510 -288 54 24 127 92 161 149 l27 46 3 333 c3 281 1 332 -11 332
-25 0 -96 -59 -116 -97 -11 -21 -20 -33 -21 -27 0 21 46 79 87 108 82 57 208
42 277 -34 45 -50 66 -122 66 -226 0 -94 -2 -91 88 -85 l55 3 -6 93 c-6 112
-31 175 -90 233 -23 23 -63 50 -88 61 -40 18 -163 43 -194 40 -5 -1 -33 -5
-61 -9z m-80 -175 c-5 -11 2 -15 27 -16 32 -2 33 -2 5 -6 -31 -5 -52 9 -42 26
10 16 16 13 10 -4z m44 -42 c-10 -2 -28 -2 -40 0 -13 2 -5 4 17 4 22 1 32 -1
23 -4z m12 -27 c0 -2 -9 -6 -20 -9 -11 -3 -18 -1 -14 4 5 9 34 13 34 5z m-12
-33 c-10 -2 -28 -2 -40 0 -13 2 -5 4 17 4 22 1 32 -1 23 -4z m-3 -25 c-19 -11
-19 -11 0 -19 14 -5 9 -7 -20 -7 -22 0 -32 2 -22 5 9 2 17 11 17 19 0 8 10 14
23 14 21 -1 21 -1 2 -12z m1 -53 c-11 -8 -29 -15 -40 -14 -15 0 -10 4 14 13
46 18 48 18 26 1z m8 -64 c3 -4 -6 -6 -19 -3 -14 2 -25 6 -25 8 0 8 39 4 44
-5z m-6 -58 c-10 -2 -28 -2 -40 0 -13 2 -5 4 17 4 22 1 32 -1 23 -4z m3 -32
c-9 -6 -10 -11 -2 -15 6 -4 11 -12 11 -19 0 -6 -6 -2 -14 8 -16 23 -46 14 -46
-15 0 -26 25 -36 47 -19 15 13 15 12 2 -8 -8 -13 -20 -23 -27 -23 -7 0 -17
-10 -22 -22 -5 -14 -9 -17 -9 -7 -1 8 4 20 10 26 8 8 7 17 -3 32 -10 17 -10
25 -1 40 10 15 10 21 0 24 -7 3 6 6 28 6 26 0 35 -2 26 -8z m5 -136 c-3 -8
-11 -15 -18 -14 -10 0 -10 2 0 6 6 2 12 14 13 26 0 12 3 16 6 9 3 -7 2 -19 -1
-27z"/>
<path d="M1147 374 c-8 -119 -25 -171 -76 -221 -61 -62 -194 -71 -269 -20 -48
34 -92 111 -92 162 0 25 -4 35 -12 31 -7 -3 -39 -13 -71 -22 -50 -15 -57 -20
-51 -38 23 -77 82 -143 159 -177 71 -31 175 -44 257 -32 199 29 298 150 298
363 l0 60 -68 0 -69 0 -6 -106z"/>
</g>
</svg>
