<svg class="logo-fill" width="236" height="33" fill="none" version="1.1" viewBox="0 0 236 33" xmlns="http://www.w3.org/2000/svg">
<path class="logo-fill" d="m141.02 27.597c-2.4991 2.0937-5.6661 3.2284-8.9301 3.1996-7.8702 0-14.007-6.3432-14.007-14.438 0-7.9561 6.0001-14.355 13.648-14.549 2.4748-0.023642 4.8949 0.72547 6.922 2.1423v2.7808h1.4508v-6.7323h-1.455v1.2798c-2.0766-0.83251-4.2933-1.2667-6.5311-1.2798-9.4611 0-17.164 7.3169-17.164 16.33 0 8.9858 7.7027 16.303 17.164 16.303 3.6907-0.0042 7.2422-1.4063 9.9352-3.9224l0.25075-0.22251-1.004-1.085zm-41.725-25.678h1.4511l-5.2468 13.187-6.6138-13.187h1.3956v-1.4747h-6.252v1.4747h1.451l7.7031 15.687v13.134h-1.9815v1.4747h7.4798v-1.4747h-2.233v-13.076l6.3074-15.746h1.3956v-1.4747h-4.8564zm-71.586 0h1.3956v-1.4747h-6.0003v1.4747h1.4794v28.821h-1.4794v1.4747h6.028v-1.4747h-1.4233zm42.422 15.162-7.1449-16.637h-3.7395v1.4747h1.5627v28.821h-1.5627v1.4747h4.968v-1.4747h-1.4233v-23.561l6.8101 16.191 6.8093-17.028v24.399h-1.5627v1.4747h6.1382v-1.4747h-1.3956v-28.821h1.3956v-1.4747h-4.2144zm-25.732 0-7.1442-16.637h-3.7395v1.4747h1.5627v28.821h-1.5911v1.4747h4.968v-1.4747h-1.3933v-23.561l6.8101 16.191 6.8071-17.028v24.399l-1.2562 0.0276-0.16783 0.0276-0.13928 0.22251v1.1962h6.0842v-1.4739h-1.3679v-28.821h1.3948v-1.4747h-4.2144zm117.44-15.162h1.4223v-1.4747h-6.195v1.4747h1.5319v6.9548h-9.2946v-6.9548h1.396v-1.4747h-6.1644v1.4747h1.5624v28.821h-1.5624v1.4747h6.1402v-1.4747h-1.3675v-20.115h9.2936v20.114h-1.5319v1.4747h6.196v-1.4732h-1.4234zm-149.31-0.028362h1.5634v22.114c0 5.3412-3.6002 6.8436-5.4984 6.8712-1.7581-0.0276-5.1913-1.391-5.4984-6.2035l-0.027719-0.36359-3.0698 0.47769 0.056173 0.33377c0.17451 1.3366 0.62138 2.6234 1.3131 3.7814 0.8132 1.1575 1.8938 2.1029 3.1507 2.7566 1.2568 0.65364 2.653 0.99626 4.0706 0.999 1.4176 0.0027 2.8151-0.33462 4.0744-0.9834 1.2593-0.6489 2.3436-1.5902 3.1612-2.7446 1.3956-2.1698 1.5072-4.7266 1.5072-7.6223v-19.361h1.3933v-1.5024h-6.1958zm169.69-1.8914c-9.4611 0-17.165 7.3169-17.165 16.33 0 8.9858 7.7037 16.33 17.165 16.33s17.164-7.3169 17.164-16.33c0-9.0134-7.7006-16.33-17.164-16.33zm-0.0843 30.796c-7.8143 0-13.926-6.3432-13.926-14.467-0.0284-3.8188 1.4329-7.499 4.0742-10.265 1.2822-1.3403 2.8236-2.4064 4.5314-3.1334s3.5474-1.0996 5.4048-1.0952c7.7322 0 14.038 6.5657 14.038 14.633 0.0306 1.8688-0.31186 3.7251-1.0072 5.4608-0.69641 1.7357-1.731 3.3161-3.0448 4.6493-1.3148 1.3332-2.8815 2.3927-4.6104 3.1166-1.7289 0.72401-3.5842 1.098-5.4596 1.1004zm36.701-30.796c-9.4621 0-17.165 7.3169-17.165 16.33 0 8.9858 7.7027 16.33 17.165 16.33 9.4611 0 17.164-7.3169 17.164-16.33 0-9.0134-7.7006-16.33-17.164-16.33zm0.0558 30.796c-7.787-0.0276-14.095-6.5374-14.095-14.438-0.0274-3.8189 1.4329-7.4994 4.0742-10.266 1.278-1.3471 2.8183-2.4195 4.5272-3.1515 1.7089-0.73193 3.5495-1.1079 5.409-1.1047 7.7332 0 14.039 6.5657 14.039 14.633 0 7.9845-6.1128 14.272-13.959 14.327z" fill="#000" stroke-width="1.0536"></path>
</svg>
