<svg xmlns="http://www.w3.org/2000/svg" viewBox="0 0 178.2 223"><title>Jimmy Choo logo - Brandlogos.net</title><path d="M486.63,575.33c0-2.51,0-4.92,0-7.33q0-30.73-.07-61.46c0-4.84-.12-9.68,0-14.51.11-6.23,0-12.49,1-18.67,2.48-15.28,10.35-26.61,24.6-33.16a69.56,69.56,0,0,1,20-5.5,77.39,77.39,0,0,1,16.66-.53c8.69.71,17.36,1.93,25.2,5.89,14.09,7.12,23.08,18.36,25.88,34.15A95.53,95.53,0,0,1,601,488.93c.06,2.84.11,5.69.11,8.54a13.6,13.6,0,0,1-.27,2.64,1.88,1.88,0,0,1-2,1.7c-2.2.09-4.4.12-6.61.13-3.43,0-6.86,0-10.29,0-2,0-3.11-1-3.24-2.95-.16-2.56-.24-5.13-.27-7.7-.06-4.77,0-9.55-.12-14.32a36.67,36.67,0,0,0-2.76-13.95c-5.23-12-14.1-19.34-27.22-21.19-9.36-1.33-18,.59-25.54,6.34a32.54,32.54,0,0,0-12,16.61,43.77,43.77,0,0,0-1.42,12.35q-.08,8.63-.06,17.27c0,11.54.1,23.09.07,34.63,0,5.41-.09,10.84-.38,16.24-.4,7.34-2.25,14.24-7.11,20-3.92,4.67-8.6,8.21-14.58,9.84Z" transform="translate(-422.9 -400.5)" style="fill:#191918"/><path d="M487.59,586.12c3.74-.94,7.47-1.66,11-2.85s6.91-2.84,10.38-4.3c.07,1.15.17,2.51.24,3.86.31,5.59,1.39,11,4.24,15.87,4,6.91,9.45,12.29,17.11,15.07a37,37,0,0,0,11,1.73,40.06,40.06,0,0,0,14.77-1.7c6.36-2.12,11.07-6.33,14.8-11.76A37.9,37.9,0,0,0,578,581.91c.25-5.65.38-11.31.53-17,.05-2,0-4.1,0-6.14a3.21,3.21,0,0,1,3.41-3.33q8-.08,16,0c2,0,3.08,1.13,3.09,3.31,0,4.5.07,9-.14,13.49a64.56,64.56,0,0,1-2.45,15.83c-4.83,15.93-15.32,26.43-31,31.85a69.76,69.76,0,0,1-21.8,3.55,83.09,83.09,0,0,1-27.53-4.08,47,47,0,0,1-24.74-18.33,38.83,38.83,0,0,1-5.83-14.81C487.57,586.15,487.59,586,487.59,586.12Z" transform="translate(-422.9 -400.5)" style="fill:#191918"/><path d="M511.07,439.39v-1.06q0-16.67,0-33.33a14.4,14.4,0,0,1,.06-1.56,2.89,2.89,0,0,1,3-2.91c.79,0,1.59,0,2.39,0,5,0,10,0,15,0a6.83,6.83,0,0,1,1.81.24,2.4,2.4,0,0,1,1.85,2.05,9.57,9.57,0,0,1,.17,1.45q0,14.28,0,28.56c0,.09,0,.18,0,.35A73.6,73.6,0,0,0,511.07,439.39Z" transform="translate(-422.9 -400.5)" style="fill:#191918"/><path d="M523.21,528.89a4.79,4.79,0,0,0-4.83,4.69,4.69,4.69,0,0,0,4.74,4.65h.05a4.79,4.79,0,0,0,4.89-4.68,4.55,4.55,0,0,0-1.41-3.31A4.92,4.92,0,0,0,523.21,528.89Z" transform="translate(-422.9 -400.5)" style="fill:#191918"/><path d="M523.21,516.7a4.67,4.67,0,1,0-.12,9.34h.07a4.79,4.79,0,0,0,4.89-4.67,4.56,4.56,0,0,0-1.41-3.31A4.92,4.92,0,0,0,523.21,516.7Z" transform="translate(-422.9 -400.5)" style="fill:#191918"/><path d="M535.35,444.51v-1c-.77.23-1.42.41-2.06.6-11.43,3.54-22.38,14.66-22.56,29.07q-.15,11.89-.19,23.78c-.05,15,0,29.95-.12,44.92a50.67,50.67,0,0,1-1.73,13C505.15,568,490.81,581.6,471.76,576c-9.15-2.69-15.91-8.14-19.46-17.17a66.92,66.92,0,0,1-3.85-18.05c-.48-4.87-.77-9.75-1.15-14.63-.17-2.15-1.19-3.15-3.32-3.24h-.64l-11.75-.15c-1.41,0-2.82,0-4.22,0-2.91,0-4.36,1.37-4.44,4.3a65.56,65.56,0,0,0,1.37,15.87c3.15,14.28,11.13,25.29,23.28,33.2,13.45,8.77,28.3,11,43.87,7.91,14.93-2.92,26.62-11.14,35.66-23.21a37.05,37.05,0,0,0,7.21-16.94,115.22,115.22,0,0,0,1-16.84Q535.39,485.76,535.35,444.51ZM519,461.14a3.31,3.31,0,0,1,1.26-.44l.11,0,.16,1h-.12a2,2,0,0,0-2.07,1.83,2,2,0,0,0,2.3,1.83H528v-.52h.48v2.05H528v-.46h-6.47A4.56,4.56,0,0,1,519,466a2.94,2.94,0,0,1,0-4.81Zm9.51,16.54v1.39H528v-.45h-9.63v.46h-.49v-2h.4l.07,0v.47h8.15l-5.69-2.27,5.41-2.27h-7.87v.47h-.49v-1.65h.49v.53H528v-.53h.49v1.25L523,475.47Zm0,8.57v1.4H528v-.47h-9.63v.46h-.49v-2h.49v.52h8.15l-5.69-2.26,5.41-2.28h-7.87v.47h-.49v-1.65h.49v.53H528v-.53h.49v1.25L523,484Zm-4.9,6.24,4.41,1.75v-.48h.49v1.62H528v-.46l-5.26-2.1h-4.37v.74h-.49v-2.49h.49v.66h4.39l5.24-2.56v-.47h.49v2.07H528v-.46Zm4.41-22.1v-.47h-9.63v.47h-.49v-2h.49v.49H528v-.49h.49v2Zm-4.81,68.89a5.72,5.72,0,1,1,5.46-5.72A5.6,5.6,0,0,1,523.21,539.28Zm0-12.19a5.72,5.72,0,1,1,5.46-5.72,5.6,5.6,0,0,1-5.46,5.72Zm1.91-13.57v-3.1h-6.72v.46h-.49v-2h.49v.51H528v-.51h.49v2H528v-.46H525.7v3.1H528V513h.49v2.06H528v-.47h-9.63v.48h-.49V513h.49v.52Zm3.55-6.65v.47h-2.25v-.48h.93a4,4,0,0,0,.71-2.3A4.75,4.75,0,0,0,523.2,500a4.69,4.69,0,0,0-4.82,4.67,4.56,4.56,0,0,0,1.07,3l.06.09-.36.33-.07-.08a4.85,4.85,0,0,1-1.31-3.31,5.46,5.46,0,1,1,10.9,0,5.82,5.82,0,0,1-.43,2.18Z" transform="translate(-422.9 -400.5)" style="fill:#191918"/></svg>